<svg width="10" height="4" viewBox="0 0 10 4" fill="none" xmlns="http://www.w3.org/2000/svg">
<path d="M4.99216 3.81027C4.82555 3.81051 4.6641 3.76623 4.53581 3.68509L0.257587 0.963962C0.111972 0.871586 0.0204009 0.738843 0.00301722 0.594935C-0.0143664 0.451027 0.0438616 0.307743 0.164892 0.196603C0.285922 0.0854627 0.45984 0.015571 0.648386 0.0023029C0.836931 -0.0109652 1.02466 0.0334771 1.17027 0.125853L4.99216 2.56399L8.81404 0.21293C8.88697 0.167723 8.9709 0.133964 9.06098 0.113593C9.15107 0.0932213 9.24554 0.0866395 9.33896 0.0942256C9.43239 0.101812 9.52294 0.123416 9.60539 0.157797C9.68784 0.192177 9.76058 0.238657 9.81942 0.294564C9.88472 0.350522 9.93418 0.41617 9.96469 0.487395C9.9952 0.55862 10.0061 0.633887 9.99674 0.70848C9.98737 0.783074 9.95792 0.855386 9.91023 0.920887C9.86254 0.986389 9.79764 1.04367 9.7196 1.08913L5.44137 3.71775C5.3094 3.78606 5.15124 3.81863 4.99216 3.81027Z" fill="#474747"/>
</svg>
