<svg width="5" height="7" viewBox="0 0 5 7" fill="none" xmlns="http://www.w3.org/2000/svg">
<path d="M4.99831 3.05405C4.99864 3.15565 4.94054 3.25411 4.83411 3.33235L1.26453 5.94142C1.14335 6.03022 0.969215 6.08607 0.780437 6.09667C0.591658 6.10727 0.403697 6.07176 0.257904 5.99795C0.11211 5.92414 0.0204261 5.81808 0.00302096 5.70309C-0.0143841 5.58811 0.0439153 5.47362 0.165095 5.38482L3.36344 3.05405L0.279322 0.723272C0.22002 0.678793 0.175734 0.627614 0.149011 0.572676C0.122288 0.517737 0.113654 0.460124 0.123605 0.403147C0.133557 0.34617 0.161897 0.290952 0.206998 0.240668C0.252099 0.190384 0.313071 0.146025 0.386409 0.11014C0.459815 0.0703168 0.545932 0.0401564 0.639365 0.0215483C0.732798 0.00294018 0.831533 -0.00371408 0.929385 0.00200081C1.02724 0.00771619 1.1221 0.0256777 1.20802 0.0547619C1.29395 0.0838456 1.36908 0.123425 1.42873 0.171019L4.87695 2.78009C4.96655 2.86058 5.00928 2.95703 4.99831 3.05405Z" fill="#A0A0A0"/>
</svg>
