<svg width="26" height="25" viewBox="0 0 26 25" fill="none" xmlns="http://www.w3.org/2000/svg">
<path d="M22.7495 8.52094V2.27496C22.7504 1.97633 22.6924 1.68046 22.5787 1.40432C22.465 1.12819 22.2978 0.877227 22.0869 0.665851C21.8759 0.454474 21.6253 0.286843 21.3494 0.172578C21.0735 0.0583133 20.7777 -0.000334372 20.4791 1.43394e-06H14.2367C13.8274 0.000843603 13.4349 0.163054 13.1444 0.451438L0.664636 12.9277C0.239004 13.3546 0 13.933 0 14.5359C0 15.1388 0.239004 15.7171 0.664636 16.1441L6.60593 22.0854C7.03278 22.5111 7.61103 22.7502 8.21389 22.7502C8.81675 22.7502 9.395 22.5111 9.82185 22.0854L22.2981 9.61322C22.5865 9.3228 22.7488 8.93028 22.7495 8.52094ZM17.8746 6.49988C17.5532 6.49988 17.239 6.40458 16.9718 6.22602C16.7046 6.04747 16.4963 5.79368 16.3733 5.49676C16.2503 5.19984 16.2181 4.87311 16.2808 4.5579C16.3435 4.24268 16.4983 3.95314 16.7256 3.72588C16.9528 3.49863 17.2424 3.34386 17.5576 3.28116C17.8728 3.21846 18.1995 3.25064 18.4964 3.37363C18.7934 3.49662 19.0471 3.7049 19.2257 3.97213C19.4043 4.23935 19.4996 4.55352 19.4996 4.87491C19.4996 5.30588 19.3284 5.7192 19.0236 6.02394C18.7189 6.32868 18.3056 6.49988 17.8746 6.49988Z" fill="#00B628"/>
<path d="M25.1873 2.4375C24.9718 2.4375 24.7652 2.5231 24.6128 2.67547C24.4604 2.82784 24.3748 3.0345 24.3748 3.24998V9.71787L11.1054 22.9878C11.0268 23.0625 10.9639 23.1522 10.9205 23.2515C10.8771 23.3509 10.854 23.458 10.8526 23.5664C10.8512 23.6749 10.8716 23.7825 10.9124 23.8829C10.9533 23.9834 11.0138 24.0746 11.0905 24.1513C11.1672 24.228 11.2585 24.2886 11.3589 24.3294C11.4594 24.3703 11.567 24.3906 11.6754 24.3892C11.7839 24.3878 11.8909 24.3648 11.9903 24.3213C12.0897 24.2779 12.1794 24.2151 12.2541 24.1364L25.5585 10.832C25.7 10.6898 25.8119 10.5209 25.8877 10.3352C25.9634 10.1494 26.0015 9.95047 25.9998 9.74986V3.24998C25.9998 3.0345 25.9142 2.82784 25.7618 2.67547C25.6094 2.5231 25.4028 2.4375 25.1873 2.4375Z" fill="#00B628"/>
</svg>
