<svg width="23" height="23" viewBox="0 0 23 23" fill="none" xmlns="http://www.w3.org/2000/svg">
<path d="M11.5 0C5.14933 0 0 5.14933 0 11.5C0 17.8507 5.14933 23 11.5 23C17.8507 23 23 17.8507 23 11.5C23 5.14933 17.8507 0 11.5 0ZM11.5 21.0491C6.22746 21.0491 1.95089 16.7725 1.95089 11.5C1.95089 6.22746 6.22746 1.95089 11.5 1.95089C16.7725 1.95089 21.0491 6.22746 21.0491 11.5C21.0491 16.7725 16.7725 21.0491 11.5 21.0491Z" fill="#737778"/>
<path d="M15.9846 14.7498L12.3241 12.1032V5.75C12.3241 5.63706 12.2317 5.54465 12.1188 5.54465H10.8841C10.7711 5.54465 10.6787 5.63706 10.6787 5.75V12.8194C10.6787 12.8862 10.7095 12.9478 10.7634 12.9863L15.0092 16.082C15.1016 16.1488 15.2299 16.1282 15.2967 16.0384L16.0308 15.0373C16.0976 14.9423 16.077 14.814 15.9846 14.7498Z" fill="#737778"/>
</svg>
